/* XPM */
static char *big_collectible[] = {
/* columns rows colors chars-per-pixel */
"32 32 7 1 ",
"  c black",
". c #663931",
"X c #4C3941",
"o c #514047",
"O c #D18C47",
"+ c #D9A066",
"@ c #DDD540",
/* pixels */
"oooooooooooooooooooooooooooooooo",
"oooooooooooooooooooooooooooooooo",
"oooooooooooooooooooooooooooooooo",
"oooooooooooooooooooooooooooooooo",
"ooooooooooooooooooooooooXXoooooo",
"ooooooooooooooooooooooooXXoooooo",
"ooooooooooXXoooooooooooooooooooo",
"ooooooooooXXoooooooooooooooooooo",
"oooooooooooooooooooooooooooooooo",
"oooooooooooooooooooooooooooooooo",
"oooooooooooooooooooooooooooooooo",
"oooooooooooooooooooooooooooooooo",
"oooooooooooooo      oooooooooooo",
"oooooooooooooo      oooooooooooo",
"oooooooooooo  ..OO++  oooooooooo",
"oooooooooooo  ..OO++  oooooooooo",
"oooooooooo  OOOO..  oooooooooooo",
"oooooooooo  OOOO..  oooooooooooo",
"oooooo    @@  ++++++    oooooooo",
"oooooo    @@  ++++++    oooooooo",
"oooo  @@    OO++++OO  @@  oooooo",
"oooo  @@    OO++++OO  @@  oooooo",
"oo  @@  @@    OOOO@@    oooooooo",
"oo  @@  @@    OOOO@@    oooooooo",
"oooo                oooooooooooo",
"oooo                oooooooooooo",
"oooooooooooooooooooooooooooooooo",
"oooooooooooooooooooooooooooooooo",
"oooooooooooooooooooooooooooooooo",
"oooooooooooooooooooooooooooooooo",
"oooooooooooooooooooooooooooooooo",
"oooooooooooooooooooooooooooooooo"
};
