/* XPM */
static char *_80c3633e9214812e84787c26c8c4887vD7adX6ky8h0x4se[] = {
/* columns rows colors chars-per-pixel */
"32 32 181 2 ",
"   c black",
".  c #040102",
"X  c #040501",
"o  c #080702",
"O  c #0A0603",
"+  c #090903",
"@  c #090A02",
"#  c #0A0A03",
"$  c #0E0E04",
"%  c #110D0F",
"&  c #1D110D",
"*  c #120E10",
"=  c #120F10",
"-  c #130F10",
";  c #130F11",
":  c #141011",
">  c #141012",
",  c #1A1113",
"<  c #1D1314",
"1  c #21150B",
"2  c #22170B",
"3  c #25180C",
"4  c #2C1D0F",
"5  c #2F1F12",
"6  c #211A1D",
"7  c #221B1E",
"8  c #231B1E",
"9  c #231C1F",
"0  c #391F1E",
"q  c #24220A",
"w  c #24240A",
"e  c #26250B",
"r  c #27260B",
"t  c #27270B",
"y  c #28270B",
"u  c #2F220F",
"i  c #29270C",
"p  c #2A280C",
"a  c #2B2A0D",
"s  c #2C2A0D",
"d  c #342F0F",
"f  c #322111",
"g  c #322610",
"h  c #352413",
"j  c #302117",
"k  c #332417",
"l  c #332318",
"z  c #362718",
"x  c #31261E",
"c  c #33271E",
"v  c #35281E",
"b  c #34281F",
"n  c #37291F",
"m  c #353117",
"M  c #363317",
"N  c #373317",
"B  c #383417",
"V  c #383418",
"C  c #393418",
"Z  c #393518",
"A  c #3A3619",
"S  c #362920",
"D  c #30252A",
"F  c #372A2B",
"G  c #372C28",
"H  c #392F2B",
"J  c #3A2D2E",
"K  c #3A2E2F",
"L  c #3B312B",
"P  c #3C312B",
"I  c #3A312C",
"U  c #3B312C",
"Y  c #3A2B31",
"T  c #3D3035",
"R  c #3D3036",
"E  c #3E3136",
"W  c #3E3137",
"Q  c #3F3137",
"!  c #462D1A",
"~  c #442E1F",
"^  c #412D20",
"/  c #573C23",
"(  c #563C25",
")  c #5F3929",
"_  c #403338",
"`  c #42343A",
"'  c #43353A",
"]  c #43353B",
"[  c #44353B",
"{  c #44363C",
"}  c #45363C",
"|  c #48363E",
" . c #4D4017",
".. c #4F4219",
"X. c #524419",
"o. c #545118",
"O. c #555118",
"+. c #555219",
"@. c #585519",
"#. c #5E4022",
"$. c #6D422D",
"%. c #6C422E",
"&. c #754E27",
"*. c #795029",
"=. c #7D542C",
"-. c #694333",
";. c #7F5E3F",
":. c #4C3941",
">. c #4D3D43",
",. c #4D3D44",
"<. c #4E3E44",
"1. c #4F3E45",
"2. c #514047",
"3. c #855D2C",
"4. c #875E2C",
"5. c #8B5B31",
"6. c #90583A",
"7. c #925A3B",
"8. c #817C25",
"9. c #817D25",
"0. c #817E25",
"q. c #827E26",
"w. c #847F26",
"e. c #82613E",
"r. c #83613F",
"t. c #9E6835",
"y. c #9F6B3B",
"u. c #A06A36",
"i. c #A07733",
"p. c #A07834",
"a. c #A5723D",
"s. c #AA713A",
"d. c #B1773E",
"f. c #976243",
"g. c #AD6F40",
"h. c #AE7040",
"j. c #A57649",
"k. c #A97A4A",
"l. c #AF7D4C",
"z. c #AF7D4D",
"x. c #B17A41",
"c. c #B17A43",
"v. c #B67840",
"b. c #B57C43",
"n. c #B97C47",
"m. c #AA7D51",
"M. c #848026",
"N. c #858127",
"B. c #848128",
"V. c #888329",
"C. c #898429",
"Z. c #8A852A",
"A. c #8E8629",
"S. c #91882A",
"D. c #918B2A",
"F. c #928D2A",
"G. c #938E2B",
"H. c #958F2B",
"J. c #A69632",
"K. c #A89732",
"L. c #AF8052",
"P. c #B68357",
"I. c #C3844C",
"U. c #CC8C4A",
"Y. c #C68E5C",
"T. c #CF9357",
"R. c #CD955C",
"E. c #DA9551",
"W. c #DC9652",
"Q. c #D69A5F",
"!. c #DC9958",
"~. c #DDA34D",
"^. c #DDA44E",
"/. c #DDA05A",
"(. c #DB9E61",
"). c #DDA063",
"_. c #DBA369",
"`. c #DFA468",
"'. c #DEA469",
"]. c #E1A365",
"[. c #E3C048",
/* pixels */
"2.2.2.2.2.2.2.2.2.2.2.2.2.2.2.2.2.2.2.2.2.2.2.2.2.2.2.2.2.2.2.2.",
"2.2.2.2.2.2.2.2.2.2.2.2.2.2.2.2.2.2.2.2.2.2.2.2.2.2.2.2.2.2.2.2.",
"2.2.2.2.2.2.2.2.2.2.2.2.:.2.2.2.2.2.2.2.2.2.2.2.2.2.2.2.:.2.2.2.",
"2.2.2.2.2.:.2.2.2.2.2.2.2.2.2.2.2.2.2.2.2.:.2.2.2.2.2.2.2.2.2.2.",
"2.2.2.2.2.2.2.2.2.2.2.2.2.2.2.2.2.2.2.2.2.2.2.2.2.2.2.2.2.2.2.2.",
"2.2.2.2.2.2.2.2.2.2.2.2.2.2.2.2.2.2.2.2.2.2.2.2.2.2.2.2.2.2.2.2.",
"2.2.2.2.2.2.2.2.2.2.2.2.2.2.2.2.2.2.2.2.2.2.2.2.2.2.2.2.2.2.2.2.",
"2.2.2.2.2.2.2.2.2.:.2.2.2.2.2.2.2.2.2.2.2.2.2.2.2.:.2.2.2.2.2.2.",
"2.2.2.2.2.2.2.2.2.2.2.2.2.2.2.2.2.2.2.2.2.2.2.2.2.2.2.2.2.2.2.2.",
"2.2.2.2.2.:.2.2.2.2.2.2.2.2.2.2.2.2.2.2.2.:.2.2.2.2.2.2.2.2.2.2.",
"2.2.2.2.2.2.2.2.2.2.2.:.2.2.2.2.2.2.2.2.2.2.2.2.2.2.2.:.2.2.2.2.",
"2.2.2.2.:.2.2.2.2.2.2.2.2.<.` T T T T ` | 2.2.2.2.2.2.2.2.2.2.2.",
"2.2.2.2.2.2.2.2.2.2.2.2.2.[ 9 * * * * 9 [ 2.2.2.2.2.2.2.2.2.2.2.",
"2.2.2.2.2.2.2.2.2.2.2.<.{ D < & 4 h z b J ` >.2.2.2.2.2.2.2.2.2.",
"2.2.2.2.2.2.2.2.2.2.2.{ 9 , 0 ) 5.a.k.r.b 8 ` 2.2.2.2.2.2.2.2.2.",
"2.2.2.2.2.2.2.2.2.<.{ F l ! $.7.h.n.z.r.b 8 ` 2.2.2.2.2.2.2.2.2.",
"2.2.2.2.2.1.2.2.2.] 9 j =.s.v.s.7.$.~ c J { <.2.2.2.2.2.2.2.2.2.",
"2.2.2.2.2.<.[ T W I N ..3.v.U.I.f.-.S c J _ Q [ <.2.2.2.2.2.2.2.",
"2.2.2.2.2.{ 8 * - A C.A./ / l.Q.Y.P.m.e.S > * 8 [ 2.2.2.:.2.2.2.",
"2.2.2.<.{ G Z y @ t 0.A. ./ L.'.'.].].j.k # r Z I ` <.2.2.2.2.2.",
"2.1.2.{ 9 M C.9.w X w X.4.x.R.'.'.).!.y.5 t 9.Z.M 8 ` 2.2.2.2.2.",
"2.<.[ J M +.D.H.@.w @ & *.n.T.(.(./.~.p.u t 9.C.N 8 ` 2.2.2.2.2.",
"2.` 8 N B.D.o.o.G.N.t   2 / x.W.E.^.[.K.d + r Z L ` >.2.2.2.2.2.",
"2.` 8 B C.8.q t 9.N.s     2 &.u.t.p.J.B.V * * 9 [ | 2.2.2.2.2.2.",
"2.>.` P B p # # p p $     # 3 f f g d N L _ T ` <.2.2.2.2.2.2.2.",
"2.2.2.[ 9 % % > > > > > ; ; > > : : * 9 [ :.2.2.2.2.2.2.2.2.2.2.",
"2.2.2.>.[ T T T T T T Y T T T T T T T ` >.2.2.2.2.2.2.:.2.2.2.2.",
"2.2.2.2.:.2.2.2.2.2.2.2.2.2.2.2.2.2.2.2.:.2.2.2.2.2.2.2.2.2.2.2.",
"2.2.2.2.2.2.2.2.2.2.2.2.2.2.2.2.2.2.2.2.2.2.2.2.2.2.2.2.2.2.2.2.",
"2.2.2.2.2.2.2.2.2.2.2.2.2.2.2.2.2.2.2.2.2.2.2.2.2.2.2.2.2.2.2.2.",
"2.2.2.2.2.2.2.2.2.2.2.2.2.2.2.2.2.2.2.2.2.2.2.2.2.2.2.2.2.2.2.2.",
"2.2.2.2.2.2.2.2.2.2.2.2.2.2.2.2.2.2.2.2.2.2.2.2.2.2.2.2.2.2.2.2."
};
