/* XPM */
static char *_97fbd4af5ca4e18b03df73e49ce9b48QtGf3rY3ORIx9A8y[] = {
/* columns rows colors chars-per-pixel */
"32 32 8 1 ",
"  c #514047",
". c #4C3941",
"X c #8895AF",
"o c #434F65",
"O c #A6B0C4",
"+ c #6F7F9F",
"@ c #412320",
"# c white",
/* pixels */
"                                ",
"                                ",
"            .               .   ",
"     .               .          ",
"             XXXXXX             ",
"             XXXXXX             ",
"       XXXXXoXXXXXXoXXXXX       ",
"       XXXXXoOOOOOOoXXXXX.      ",
"oXXXXXoXXXXXo++++++oXXXXXoXXXXXo",
"oXXXXXoOOOOOo++++++oOOOOOoXXXXXo",
"oXXXXXo+++++o++++++o+++++oXXXXXo",
"oOOOOOo+++++o++++++o+++++oOOOOOo",
"o+++++o+++++        +++++o+++++o",
"o+++++                    +++++o",
"o+++++                    +++++o",
"oooooo                    oooooo",
"oOOOOO                    OOOOOo",
"o+++++                    +++++o",
"o+++++      .             +++++o",
"o+++++               .    +++++o",
"o+++++                    +++++o",
"oooooo                    oooooo",
"oOOOOO                    OOOOOo",
"o+++++   .               .+++++o",
"o+++++                    +++++o",
"o+++++               .    +++++o",
"o+++++     .              +++++o",
"oooooo              .     oooooo",
"oOOOOO                    OOOOOo",
"o+++++@@@@@@@@@@@@@@@@@@@@+++++o",
"o+++++@@@@@@@@@@@@@@@@@@@@+++++o",
"o+++++@@@@@@@@@@@@@@@@@@@@+++++o"
};
