/* XPM */
static char *_a888780c00849feb662c3a360066201zq33v1tiiQwWm5VC[] = {
/* columns rows colors chars-per-pixel */
"32 32 14 1 ",
"  c #514047",
". c #4C3941",
"X c #8895AF",
"o c #434F65",
"O c #A6B0C4",
"+ c #6F7F9F",
"@ c #412320",
"# c #59302C",
"$ c #6D3B36",
"% c #5C322D",
"& c gray55",
"* c gray68",
"= c #9A544C",
"- c white",
/* pixels */
"                                ",
"                                ",
"            .               .   ",
"     .               .          ",
"             XXXXXX             ",
"             XXXXXX             ",
"       XXXXXoXXXXXXoXXXXX       ",
"       XXXXXoOOOOOOoXXXXX.      ",
"oXXXXXoXXXXXo++++++oXXXXXoXXXXXo",
"oXXXXXoOOOOOo++++++oOOOOOoXXXXXo",
"oXXXXXo+++++o++++++o+++++oXXXXXo",
"oOOOOOo+++++o++++++o+++++oOOOOOo",
"o+++++o+++++@@@@@@@@+++++o+++++o",
"o+++++@@@@@@@@@@@@@@@@@@@@+++++o",
"o+++++@@@@@@@@@@@@@@@@@@@@+++++o",
"oooooo@@@@@@#@####@#@@@@@@oooooo",
"oOOOOO###@###@####@###@###OOOOOo",
"o+++++###@$$$%$$$$%$$$@###+++++o",
"o+++++$$$%$$$%$$$$%$$$%$$$+++++o",
"o+++++&&*%$$$%$$$$%$$$%$$$+++++o",
"o+++++&**%$$$%$$$$%$$$%$$$+++++o",
"oooooo$$$%$$$%$$$$%$$$%$$$oooooo",
"oOOOOO$$$%$$$%$$$$%$$$%$*$OOOOOo",
"o+++++$$$%$$$%$$$$%$$$%$*$+++++o",
"o+++++$$$%$$$%$$$$%$$$%$*$+++++o",
"o+++++$$$%$$$%$$$$%$$$%$*$+++++o",
"o+++++$$$%$$$%$$$$%$$$%$*$+++++o",
"oooooo$$$%$$$%$$$$%$$$%$$$oooooo",
"oOOOOO&&*%$$$%$$$$%$$$%$$$OOOOOo",
"o+++++&**%$$$%$$$$%$$$%$$$+++++o",
"o+++++$$$%$$$%$$$$%$$$%$$$+++++o",
"o+++++===%===%====%===%===+++++o"
};
