/* XPM */
static char *big_player[] = {
/* columns rows colors chars-per-pixel */
"32 32 9 1 ",
"  c #060608",
". c #34292E",
"X c #4C3941",
"o c #514047",
"O c #AC3232",
"+ c #DF7126",
"@ c #847E87",
"# c #9BADB7",
"$ c white",
/* pixels */
"oooooooooo      oooooooooooooooo",
"oooooooooo      oooooooooooooooo",
"oooooooooo  OOOO  oooooooooooooo",
"oooooooooo  OOOO  oooooooooooooo",
"oooooooooooo  @@        XXoooooo",
"oooooooooooo  @@        XXoooooo",
"oooooooooo  @@@@########  oooooo",
"oooooooooo  @@@@########  oooooo",
"oooooooo  @@############  oooooo",
"oooooooo  @@############  oooooo",
"oooooooo  ####$$$$$$$$$$  oooooo",
"oooooooo  ####$$$$$$$$$$  oooooo",
"oooooooo  ####$$          oooooo",
"oooooooo  ####$$          oooooo",
"oooooooo  @@##$$$$$$  $$  oooooo",
"oooooooo  @@##$$$$$$  $$  oooooo",
"oooooooo    @@@@OOOO++OO  oooooo",
"oooooooo    @@@@OOOO++OO  oooooo",
"oooooooooo  OOOO@@@@@@@@  oooooo",
"oooooooooo  OOOO@@@@@@@@  oooooo",
"ooooooooOO  @@@@########  oooooo",
"ooooooooOO  @@@@########  oooooo",
"ooooooOOOO  @@@@      @@  oooooo",
"ooooooOOOO  @@@@      @@  oooooo",
"ooooooOOOO  @@  OO  @@  ....oooo",
"ooooooOOOO  @@  OO  @@  ....oooo",
"oooo......    ....    ........oo",
"oooo......    ....    ........oo",
"oooo..........................oo",
"oooo..........................oo",
"oooooo......................oooo",
"oooooo......................oooo"
};
