/* XPM */
static char *big_player[] = {
/* columns rows colors chars-per-pixel */
"32 32 9 1 ",
"  c black",
". c #34292E",
"X c #4C3941",
"o c #514047",
"O c #AF2A2A",
"+ c #E1731B",
"@ c #868089",
"# c #9DB0B9",
"$ c white",
/* pixels */
"oooooooooooooooo      oooooooooo",
"oooooooooooooooo      oooooooooo",
"oooooooooooooo  OOOO  oooooooooo",
"oooooooooooooo  OOOO  oooooooooo",
"oooooooo        @@  ooooXXoooooo",
"oooooooo        @@  ooooXXoooooo",
"oooooo  ########@@@@  oooooooooo",
"oooooo  ########@@@@  oooooooooo",
"oooooo  ############@@  oooooooo",
"oooooo  ############@@  oooooooo",
"oooooo  $$$$$$$$$$####  oooooooo",
"oooooo  $$$$$$$$$$####  oooooooo",
"oooooo          $$####  oooooooo",
"oooooo          $$####  oooooooo",
"oooooo  $$  $$$$$$##@@  oooooooo",
"oooooo  $$  $$$$$$##@@  oooooooo",
"oooooo  OO++OOOO@@@@    oooooooo",
"oooooo  OO++OOOO@@@@    oooooooo",
"oooooo  @@@@@@@@OOOO  oooooooooo",
"oooooo  @@@@@@@@OOOO  oooooooooo",
"oooooo  ########@@@@  OOoooooooo",
"oooooo  ########@@@@  OOoooooooo",
"oooooo  @@      @@@@  OOOOoooooo",
"oooooo  @@      @@@@  OOOOoooooo",
"oooo....  @@  OO  @@  OOOOoooooo",
"oooo....  @@  OO  @@  OOOOoooooo",
"oo........    ....    ......oooo",
"oo........    ....    ......oooo",
"oo..........................oooo",
"oo..........................oooo",
"oooo......................oooooo",
"oooo......................oooooo"
};
